<mxfile host="app.diagrams.net" modified="2023-09-05T05:58:19.853Z" agent="Mozilla/5.0 (Windows NT 10.0; Win64; x64) AppleWebKit/537.36 (KHTML, like Gecko) Chrome/116.0.0.0 Safari/537.36" version="21.6.8" etag="eOCXow_Wy6BIPe2Y63J1" type="github">
  <diagram name="Page-1" id="Ys0WNoOP0TiUfSo99zCf">
    <mxGraphModel>
      <root>
        <mxCell id="0" />
        <mxCell id="1" parent="0" />
      </root>
    </mxGraphModel>
  </diagram>
</mxfile>
